<svg width="173" height="29" viewBox="0 0 173 29" fill="none" xmlns="http://www.w3.org/2000/svg">
<path fill-rule="evenodd" clip-rule="evenodd" d="M14.7399 21.75L6.07601 26.2307L7.73067 16.7404L0.721423 10.0193L10.408 8.63463L14.7399 0L19.0719 8.63463L28.7584 10.0193L21.7492 16.7404L23.4038 26.2307L14.7399 21.75Z" fill="#F4FF00"/>
<path fill-rule="evenodd" clip-rule="evenodd" d="M50.6199 21.75L41.956 26.2307L43.6107 16.7404L36.6015 10.0193L46.288 8.63463L50.6199 0L54.9519 8.63463L64.6384 10.0193L57.6292 16.7404L59.2838 26.2307L50.6199 21.75Z" fill="#F4FF00"/>
<path fill-rule="evenodd" clip-rule="evenodd" d="M86.5 21.75L77.8361 26.2307L79.4907 16.7404L72.4815 10.0193L82.168 8.63463L86.5 0L90.8319 8.63463L100.518 10.0193L93.5092 16.7404L95.1639 26.2307L86.5 21.75Z" fill="#F4FF00"/>
<path fill-rule="evenodd" clip-rule="evenodd" d="M122.38 21.75L113.716 26.2307L115.371 16.7404L108.362 10.0193L118.048 8.63463L122.38 0L126.712 8.63463L136.399 10.0193L129.389 16.7404L131.044 26.2307L122.38 21.75Z" fill="#F4FF00"/>
<path fill-rule="evenodd" clip-rule="evenodd" d="M158.26 21.75L149.596 26.2307L151.251 16.7404L144.242 10.0193L153.928 8.63463L158.26 0L162.592 8.63463L172.279 10.0193L165.269 16.7404L166.924 26.2307L158.26 21.75Z" fill="#F4FF00"/>
</svg>
